<?xml version="1.0" encoding="UTF-8" standalone="no"?>
<svg
   version="1.1"
   x="0"
   y="0"
   width="500"
   height="500"
   viewBox="0, 0, 500, 500"
   id="svg155"
   sodipodi:docname="KartozaSymbolCMYK.svg"
   inkscape:version="1.2 (56b05e47e7, 2022-06-09, custom)"
   xmlns:inkscape="http://www.inkscape.org/namespaces/inkscape"
   xmlns:sodipodi="http://sodipodi.sourceforge.net/DTD/sodipodi-0.dtd"
   xmlns="http://www.w3.org/2000/svg"
   xmlns:svg="http://www.w3.org/2000/svg">
  <defs
     id="defs159" />
  <sodipodi:namedview
     id="namedview157"
     pagecolor="#ffffff"
     bordercolor="#666666"
     borderopacity="1.0"
     inkscape:showpageshadow="2"
     inkscape:pageopacity="0.0"
     inkscape:pagecheckerboard="0"
     inkscape:deskcolor="#d1d1d1"
     showgrid="false"
     inkscape:zoom="1.498"
     inkscape:cx="239.65287"
     inkscape:cy="250"
     inkscape:window-width="1920"
     inkscape:window-height="952"
     inkscape:window-x="0"
     inkscape:window-y="27"
     inkscape:window-maximized="1"
     inkscape:current-layer="svg155" />
  <path
     d="m 274.0205,221.65156 c 3.1186,-12.56534 4.86152,-24.90644 3.87137,-34.18616 -2.51342,-23.55936 -20.30978,-28.95798 -30.57163,-28.95169 -10.68285,0.006 -25.96695,3.95602 -30.36513,28.8739 -3.80158,21.54474 7.15584,51.83894 23.37574,79.96923 0,0 -1.80583,4.16137 -6.51805,10.83672 -6.8235,9.66583 -12.3085,14.97922 -12.3085,14.97922 -20.99905,-36.22308 -37.48894,-67.9004 -37.32363,-91.35852 0.42615,-60.30983 34.23935,-77.27506 63.139,-77.09088 28.89964,0.18419 63.45303,19.28073 63.45303,76.56463 0,6.14625 -2.21769,16.59458 -3.76955,23.5056 -2.21082,-0.17847 -8.20147,-1.19608 -14.6852,-1.80583 -10.0239,-0.94554 -18.29745,-1.33622 -18.29745,-1.33622 z"
     fill="#54a2cc"
     id="path148"
     style="stroke:#ffffff;stroke-width:4.68057;stroke-dasharray:none;stroke-opacity:1" />
  <path
     d="m 194.31897,265.04707 c -12.44121,3.58192 -23.99981,8.24323 -31.54118,13.74024 -19.14688,13.95589 -14.92373,32.06857 -9.78709,40.95246 5.34715,9.24825 16.40981,20.5094 40.18826,11.8589 20.55917,-7.47903 41.31568,-32.11605 57.56704,-60.22804 0,0 4.50744,-0.51652 12.64428,0.22652 11.78225,1.07538 19.12628,3.17065 19.12628,3.17065 -20.87034,36.29573 -40.05898,66.41547 -60.45684,78.00152 -52.44298,29.78568 -84.04194,8.98513 -98.33245,-16.13468 -14.28938,-25.1198 -15.02784,-64.5919 34.58083,-93.23413 5.32255,-3.07284 15.4803,-6.37562 22.24088,-8.48748 0.95011,2.00375 3.06483,7.69925 5.77845,13.62069 4.1934,9.1533 7.99154,16.51335 7.99154,16.51335 z"
     fill="#eeb248"
     id="path150"
     style="stroke:#ffffff;stroke-width:4.68057;stroke-dasharray:none;stroke-opacity:1" />
  <path
     d="m 273.55718,311.26773 c 9.32204,8.98399 19.13887,16.66322 27.67039,20.44535 21.65972,9.60346 35.23407,-3.1106 40.35928,-12.0002 5.33571,-9.25397 9.55714,-24.46599 -9.82312,-40.7328 -16.75817,-14.06572 -48.47209,-19.72347 -80.94337,-19.74063 0,0 -2.70045,-3.64599 -6.12507,-11.06323 -4.96047,-10.74177 -6.81893,-18.1493 -6.81893,-18.1493 41.86881,-0.0738 77.54791,1.48379 97.78047,13.35642 52.01741,30.52358 49.80201,68.28995 35.19289,93.22556 -14.60798,24.93447 -48.42405,45.3106 -98.03387,16.66951 -5.32197,-3.07399 -13.26147,-10.21838 -18.47076,-15.01811 1.26014,-1.82472 5.13607,-6.50375 8.90676,-11.81372 5.83107,-8.20948 10.30533,-15.17885 10.30533,-15.17885 z"
     fill="#8a8b8b"
     id="path152"
     style="stroke:#ffffff;stroke-width:4.68057;stroke-dasharray:none;stroke-opacity:1" />
</svg>
