<?xml version="1.0" encoding="UTF-8"?>
<!DOCTYPE svg PUBLIC "-//W3C//DTD SVG 1.1//EN" "http://www.w3.org/Graphics/SVG/1.1/DTD/svg11.dtd">
<svg version="1.1" xmlns="http://www.w3.org/2000/svg" xmlns:xlink="http://www.w3.org/1999/xlink" x="0" y="0" width="500" height="500" viewBox="0, 0, 500, 500">
  <g id="Image">
    <path d="M296.244,207.294 C301.696,185.327 304.743,163.752 303.012,147.529 C298.618,106.342 267.506,96.904 249.566,96.915 C230.89,96.926 204.17,103.831 196.481,147.393 C189.835,185.058 208.991,238.019 237.347,287.197 C237.347,287.197 234.19,294.472 225.952,306.142 C214.023,323.04 204.434,332.329 204.434,332.329 C167.723,269.003 138.895,213.624 139.184,172.614 C139.929,67.179 199.042,37.52 249.565,37.842 C300.088,38.164 360.495,71.549 360.495,171.694 C360.495,182.439 356.618,200.705 353.905,212.787 C350.04,212.475 339.567,210.696 328.232,209.63 C310.708,207.977 296.244,207.294 296.244,207.294 z" fill="#54A2CC"/>
    <path d="M156.908,283.159 C135.158,289.421 114.951,297.57 101.767,307.18 C68.294,331.578 75.677,363.243 84.657,378.774 C94.005,394.942 113.345,414.629 154.915,399.506 C190.857,386.431 227.144,343.36 255.555,294.214 C255.555,294.214 263.435,293.311 277.66,294.61 C298.258,296.49 311.097,300.153 311.097,300.153 C274.611,363.606 241.065,416.262 205.405,436.517 C113.723,488.589 58.481,452.225 33.498,408.31 C8.517,364.395 7.226,295.389 93.953,245.316 C103.258,239.944 121.016,234.17 132.835,230.478 C134.496,233.981 138.193,243.938 142.937,254.29 C150.268,270.292 156.908,283.159 156.908,283.159 z" fill="#EEB248"/>
    <path d="M295.434,363.963 C311.731,379.669 328.893,393.094 343.808,399.706 C381.674,416.495 405.405,394.268 414.365,378.727 C423.693,362.549 431.073,335.955 397.192,307.517 C367.895,282.927 312.452,273.036 255.685,273.006 C255.685,273.006 250.964,266.632 244.977,253.665 C236.305,234.886 233.056,221.936 233.056,221.936 C306.252,221.807 368.627,224.53 403.998,245.286 C494.936,298.648 491.063,364.672 465.523,408.265 C439.985,451.856 380.867,487.478 294.138,437.407 C284.834,432.033 270.954,419.543 261.847,411.152 C264.05,407.962 270.826,399.782 277.418,390.499 C287.612,376.147 295.434,363.963 295.434,363.963 z" fill="#8A8B8B"/>
  </g>
</svg>
